<svg xmlns="http://www.w3.org/2000/svg" viewBox="0 0 500 657">
  <path fill="#7149c6" d="M11 258c37 152 262 144 267 174 1 3-3 15-59 17-84-25-211-53-208-191Zm482-116c0 4 11 83-78 103-26-27-99-40-151-37-18-4-52-6-52-20 0-33 159-29 199 15 0 0 63-6 82-61Zm7 298C497 721-20 703 1 533c9 24 28 42 57 55 92 41 399 57 442-148Z"/>
  <path fill="#ff5640" d="M494 408C483 636 151 618 62 579c-86-38-68-137 1-162 47 32 98 40 133 42 85 4 94-19 92-29-7-46-262-23-272-205v-1C16 222-2 0 285 0c267 0 230 169 132 194-47-45-215-53-215-6 0 26 17 16 156 54 158 44 136 165 136 166Z"/>
</svg>