<svg xmlns="http://www.w3.org/2000/svg" id="a" viewBox="0 0 1517 1517">
  <defs>
    <style>
      .g{fill:#729772}
    </style>
  </defs>
  <g id="c">
    <path d="M852 52c-14-13-29-25-50-22-70 18-145 28-214 48-13 4-24 8-35 16L443 204c-5 3-7-3-11-5-7-4-14-3-19 3-13 14 6 22 5 26-12 13-24 23-22 42-7 7-54-32-67-15s12 29 24 34c20 10 42 15 65 14 8 6 15 16 16 27l-23 22h-30l12 17v3l-22 21-33 2 13 18-22 23-33 3c3 4 14 13 13 17l-22 22h-34l13 20-22 23h-33l12 20-21 22h-32l12 19-23 24h-32l13 19c-8 7-19 23-30 23H85l13 18c0 2-17 19-20 21-6 3-39 9-39 9s18 11 17 18c-5 9-4 22-7 31-1 3-19 26-17 28l24-2c2 9 13 16 16 24 2 5 5 32 6 33l17-14c11 7 23 6 34 9 8 2 21 15 28 17 3 1 3-1 3-3 1-7-3-14-2-21 8 1 29-24 30-24h32l-13-18 26-24h30l-13-19 22-22h32l-11-20 21-23h32l-11-20 22-22h32l-13-19 24-24h32l-13-19 23-23h32l-13-19c8-7 19-24 30-24h26l-13-18c0-2 24-26 26-27 5-2 11 6 16 9 33 19 48-17 70-34 3-1 11 16 25 4 10-8 6-17-1-25l243-247c28-43 1-77-31-106ZM262 675 155 783c-37 31-95-27-65-65l345-345 71 59-244 243Zm305-242c-2 1-3 2-5 1l-97-74c-2-22 19-21-38-94-1-5 11-16 15-15l151 154c0 2-24 26-26 28Zm292-294L617 382 463 228s69-77 105-107c12-9 21-11 35-15 65-17 132-28 196-45 7 0 14-1 19 2 3 1 37 35 40 39 7 11 8 25 1 37Z" class="g"/>
    <path d="M792 96c-9-5-21 0-30 1-28 6-76 15-102 25-3 1-8 3-10 6-2 2-11 35-12 39v12l58 60c7 7 14 10 23 4l103-102c4-7 3-11-1-17-2-3-26-27-29-28Zm-6 39-74 73c-5 2-41-36-41-39l6-19 99-24c3-2 11 7 10 9ZM596 301c25 28 73-2 55-39-21-46-91-1-55 39Zm-16-128c-1-7-9-11-16-10-14 1-37 36-55 51-6 10 0 22 11 23 13 2 18-14 24-14 6 2 23 28 35 5 8-16-14-23-13-29 7-8 17-12 14-26ZM310 539c-7 8-12 15-4 24 9 10 17 5 25-1 40-33 76-81 115-116 5-5 5-14 0-20-12-13-25 2-34 10-30 36-74 68-102 103ZM154 719c11 11 28-7 17-18-11-10-28 7-17 18Zm-40 30 5 9c4 2 15 0 17-5 10-22-26-23-22-4Z" class="g"/>
  </g>
  <g id="d">
    <path d="M1361 536c-11-13-71-82-136-148-127-129-162-137-202-137-91 0-149 98-171 197a151 151 0 0 0 65 161c3 7 7 13 13 17l223 116s17 7 26 4c4 4 41 25 89 25 59 0 111-30 132-76 17-37 18-94-39-159Zm-195 181L946 603c-4-3-3-6-2-10 5-13 16-28 22-41 3-8 15 0 15 0s210 109 214 113c23 21 3 61-29 52ZM985 523c-6-3-15-2-16-2-2-2-32-9-11-77 4-11 13-40 29-63 7-11 22-29 36-29 5 0 11 2 17 6 58 36 198 184 245 244 30 40 34 68-13 68-22 0-47-12-47-12-4-7-9-13-16-18L985 523Zm283 220c-18 0-37-3-56-11a60 60 0 0 0 21-41c10 3 24 7 39 7 21 0 109-17 35-113-47-61-190-212-253-251-14-9-79-40-123 102-20 65-1 88 12 99l-23 42c-19-16-55-58-41-123 16-71 62-175 144-175 10 0 21 1 32 5 63 19 243 221 285 270 91 105 19 189-72 189Z" class="g"/>
    <path d="m1159 688 5 9c4 2 15 1 17-4 10-23-26-23-22-5Z" class="g"/>
  </g>
  <g id="e">
    <path d="M884 1317c-106-91-281-185-402-219 49-167-73-140 48-180 39-12 74-32 104-59 66-56 155-91 234-118 20-4 36-13 24-36-46-54-199 16-264 48-54 29-101 72-165 75-17 2-37-3-54-2-60 20-100 94-127 147-251 8-237-17-248-3-13 15 21 47 29 59 59 62 113 62 190 75-26 64-113 72-164 86-16 16 9 28 22 33 82 38 185-21 232-62 19 19 28 35 58 44 54 15 112 17 167 33 115 32 198 81 288 123 22 6 38-28 28-44Zm-623-236c-28-7-59-8-86-15-37-12-87-37-102-71 63 11 127 7 190 6 1 4-8 17-9 21 0 18 17 42 7 59Zm14 45c16-25 19-65 9-96 9-27 58-117 82-141 21 0 45 43 47 54l-1 3c-11 3-14 9-18 18-14 34-22 74-35 108-2 21 24 20 38 27-9 12-26 53-38 36-17-35-99 93-210 71 44-16 104-39 126-80Zm165-195-2-2c-10-26-27-47-49-58 11-18 24-17 39-16 101 6 153-50 233-89 46-21 144-64 200-51a795 795 0 0 0-278 151c-45 28-100 33-143 65Zm19 154-4 5-67-25 31-92c8-6 26-19 32-14 1 4 42 54 8 126Zm-71 71c12-8 27-41 36-49a1268 1268 0 0 1 436 226c-135-70-279-131-416-147-8 1-80-13-56-30Z" class="g"/>
    <path d="M351 1038c0-40-62-20-41 14 11 17 42 13 41-14Z" class="g"/>
  </g>
  <path id="f" d="M1439 1396c-19-64-50-125-92-179 17-32 51-109 28-178-14-43-47-75-99-96a489 489 0 0 0-429 41c-9 6-14 15-13 25s9 19 20 22c39 11 107 37 125 88 17 46 39 83 67 112a192 192 0 0 0 141 59c70 0 124-36 142-50 34 45 64 100 84 164a14 14 0 1 0 26-8Zm-270-135c-94-10-141-88-163-151-22-61-94-91-139-104 134-74 272-87 399-37 43 17 71 44 82 78 18 52-5 113-20 146a660 660 0 0 0-272-192 14 14 0 1 0-9 26 638 638 0 0 1 265 191c-17 13-74 50-143 43Z" class="g"/>
</svg>