<svg xmlns="http://www.w3.org/2000/svg" id="a" viewBox="0 0 606 597">
  <defs>
    <style>
      .b{fill:#729772}
    </style>
  </defs>
  <path d="M65 157c8 2 31-2 40-3 53-7 106-23 154-45 2 0 5 8 6 10 7 12 15 22 28 29 4 2 13 4 14 9 0 5-15 29-18 36-8 18-8 34-12 52-8 35-26 67-43 98-2 10 6 12 14 11 25-4 54-65 62-87 12-29 14-60 37-82 6-5 14-8 17-15 7-15 6-34 4-49-2-10-6-21-7-30v-3c19-18 37-36 57-52l24-18c2-10-21-12-28-12-33-2-56 14-82 32-5-12-1-26 4-38h-13c-9 27-9 46 12 66l8 6a354 354 0 0 1 14 67c1 3-6 4-9 4s-19-4-21-6c2-9-1-16-5-25l-16-33c-6-6-18 4-19 3-1-4-6-19-1-22 3-1 6 2 9-3 5-8 7-28 10-38l8-19h-13c-7 15-12 31-14 47-29-7-52 16-75 30-46 28-97 42-148 57-10 3-6 21 2 23Zm290-93c-4-4-18-9-19-15l2-2c23-17 51-34 82-28l-62 55c-1-3-1-7-3-10Zm-32 85c10 5 21 6 32 4 4 12-12 19-19 27-21 23-25 51-35 79-9 24-27 62-47 78-1 1-1 2-3 2 8-17 17-33 24-51 10-27 13-50 20-77 5-21 22-39 26-61l2-1Zm-23-58 16 38c-1 3-3 13-6 14l-13-5c-13-7-25-21-26-36l29-11Zm-171 36c30-11 60-23 88-39 11-6 38-28 49-30h7c-2 6 4 26 1 30l-22 11c-56 25-117 40-177 45l53-17Z" class="b"/>
  <path d="M171 225c-11-14-25 13-31 20-6 5-16 14-24 17-12 5-22 3-35 5-38 5-69 25-81 62v76c12-5 12 2 20 8 93 79 156-47 159-128 0-11-2-52-8-60Zm-18 125c-9 24-32 62-56 72-28 12-55-5-75-24a353 353 0 0 0 104-71c3-3 11-11 13-15 2-3 1-5-2-8-7-5-11 5-14 9-31 32-67 60-110 74-15-53 11-99 66-107 13-2 27 0 39-5 19-7 32-24 44-38 6 39 5 76-9 113ZM74 0H58c42 46 1 95-54 77 2-6 8-11 8-18 24 8 55-2 40-33C48 16 40 9 34 0H17c7 10 31 31 25 45-3 7-27 3-33-1-3-1-5-8-9-8v52c59 22 115-32 74-88Zm452 466c-35 1-56 36-66 66-8 22-11 43 0 65h15c-14-19-11-38-4-59 11-33 39-76 80-53 20 11 37 33 55 48v-18c-23-18-47-51-80-49Z" class="b"/>
  <path d="M498 522c-10 19-21 50-5 67l-4 8h48c-8-5-16-10-24-13-7-3-11-1-14-8-5-11 2-29 6-40 4-8 15-28 25-26 6 1 20 14 25 18 18 15 34 33 51 49v-18c-13-11-24-24-37-36-26-22-49-43-71-1Zm92-452-96-50c-2-4 8-16 9-20h-14l-6 9-7-9h-15l6 10c7 8 16 13 22 21 36 17 70 40 108 52l9 5V62c-4 6-8 9-16 8ZM340 557c-18 7-32 22-39 40h13c4-9 12-18 20-23l-10 23h13l23-37c0-11-14-6-20-3ZM0 535l57 62h16c-22-28-48-55-73-80v18ZM540 0h-27l80 42c4 3 10 5 13 10V35L540 0Zm-13 403c-6 1-6 11 0 12h28c18-1 34-5 51-9v-13c-19 5-37 9-57 10h-22ZM0 580l16 17h16L0 561v19Zm606-201v-42c-4 14-4 28 0 42Zm-183 45 117-91c14-15 5-33-6-47-5-6-12-12-21-12-35 4-72 2-107 11l-57 43c-2 0-7-9-13-2-5 5 2 7 1 10-4 6-11 9-11 17-2 2-19-14-26-11-14 5 9 20 15 22 11 5 23 2 24 16l-12 9-12-2 4 8c-7 10-14 10-25 8l4 8-10 9h-14l4 6c0 3-8 8-11 9-4 1-9-1-14-1 1 3 5 7 3 10l-9 7c-5 1-9-1-14-1l3 9c-7 9-13 9-23 6 0 3 4 6 3 9-1 2-10 9-12 9l-12-2 4 9c-7 8-14 9-24 7l4 8c-6 10-16 8-26 10-1 1 6 5 6 8l-5 13c-1 2-10 11-9 12h10l6 10v15c4 1 6-4 9-4l15 6c3 2 8 8 10 8 3-1 1-8 2-10 1-1 12-5 13-9l14 2-4-9 13-8 12 2-4-10c3 0 7-6 10-7s10 1 14 2c-1-7-5-7 0-13 2-1 6-5 8-5l12 2-3-9 10-8c3-1 13 2 14 1l-4-9c7-8 14-9 25-7l-4-8c7-9 14-11 24-7l-4-9c8-9 14-11 25-7l-4-9 13-10c6 5 9 9 17 8 7-1 14-11 19-13 3-1 5 6 11 3 8-4 1-10 2-12ZM194 558c-18 11-38-16-24-31l167-127 26 28-169 130Zm208-135-13 9c-4 0-32-32-38-36-1-3 2-6 2-10 1-10-9-23-13-32l1-4c1-1 5-3 7-1l53 72v2Zm12-10-56-73 1-3c16-11 31-27 48-37 15-8 58-9 76-10 9-1 30-6 36-1l14 20c2 6 1 10-2 14l-117 90Zm11-281c-17 13-13 37 6 47 8 4 16 3 24 7l-1 46 26 3 29-3-2-41c36 2 62-41 26-63l-11-5-4-9c-15-25-57-25-74-3-3 4-5 12-6 14-1 1-10 4-13 7Zm42 89v-30c9 2 19 1 28-1l1 30c0 3-26 2-29 1Zm-18-85c1-7 2-14 7-20 16-16 55-9 55 18 38 4 33 47-6 44l-9-2c-11 0-13 6-27 2-7-1-12-7-16-8h-8c-28-5-21-34 4-34Zm-55 361c-13 2-13 27 3 24 14-2 11-26-3-24ZM35 199c-15 4-7 31 8 22 11-7 6-25-8-22Zm42 293c-9 3-7 20 5 18s9-22-5-18Zm76-449c9-2 7-17-2-15s-7 16 2 15Zm180 47c10-9-3-26-14-16-9 9 4 24 14 16Z" class="b"/>
  <path d="M596 61c3-3 2-10-5-10-9 0-3 16 5 10Zm-92 239h-20c-9 1-32 2-39 5-5 2-12 19-10 24 5 5 19 30 25 32h3c15-11 32-22 46-34 3-3 8-5 8-9 0-3-10-16-13-18Zm-5 18-35 26c-2 0-14-15-15-18 0-1 3-7 5-8l42-5c2 1 5 4 3 5Zm-79 36c-21 3-16 31 2 30 21-1 18-33-2-30Zm-17-21c12-6 8-21-5-14l-21 17c-5 11 7 13 14 6l3 1c2 3 4 8 10 5 10-4-1-14-1-15Zm-72 87c-16 13-35 24-50 37-5 4-14 10-10 17 5 8 24-9 29-13l36-29c7-6 4-14-5-12ZM200 523c-6 2-5 12 3 10 6-2 5-12-3-10Zm-17 13c-7 1-5 11 0 11 9-1 7-12 0-11Z" class="b"/>
</svg>