<?xml version="1.0" encoding="UTF-8"?><svg id="a" xmlns="http://www.w3.org/2000/svg" viewBox="0 0 894.867 277.556"><defs><style>.b{fill:#ff5640;}.c{fill:none;}.d{fill:#7149c6;}</style></defs><path class="c" d="M174.244,55.558c5.066-.704,7.742-2.668,8.549-5.869-.978-4.672-4.978-7.689-14.151-6.399-1.631.229-3.654.618-5.545,1.001.587,4.076,1.047,7.278,1.776,12.339,2.611-.248,7.297-.783,9.371-1.072Z"/><path class="c" d="M258.746,209.482c-10.173,0-17.388,2.81-22.128,6.744,5.176-1.115,11.128-1.7,17.888-1.7,7.039,0,11.9.865,14.817,1.317-.814-4.147-3.79-6.361-10.577-6.361Z"/><path class="c" d="M236.816,70.983c-3.944.424-6.243,1.502-7.163,3.485.887,2.171,3.007,2.984,5.643,2.697,4.552-.496,7.29-2.013,9.515-4.471-.059-.572-.123-1.184-.197-1.901-3.016-.194-4.319-.184-7.799.19Z"/><path class="c" d="M658.417,103.871c7.62.85,12.248-.064,14.495-1.703-1.163-.52-3.082-1.026-6.239-1.61-5.278-.976-11.823-2.349-17.084-3.668-.771.75-1.31,1.529-1.671,2.485,1.166,2.208,4.373,3.812,10.499,4.495Z"/><path class="c" d="M755.618,207.474c-5.555,0-9.294,2.669-11.222,6.159h19.034c0-.084.01-.179.013-.267-.692-3.708-3.165-5.892-7.825-5.892Z"/><path class="c" d="M729.515,60.634c-4.061-.59-7.052.345-9.065,3.113,5.093.717,8.257,1.176,13.922,2.017.189-.514.271-.961.36-1.54-.547-1.851-2.02-3.126-5.217-3.59Z"/><path class="c" d="M664.942,67.609c6.931.783,10.099-2.605,11.034-9.544-.623-3.219-2.766-5.425-7.531-5.966-7.236-.821-10.622,3.406-11.413,9.422.694,3.794,3.286,5.566,7.911,6.088Z"/><path class="c" d="M524.548,207.474c-5.555,0-9.294,2.669-11.222,6.159h19.034c0-.084.01-.179.013-.267-.692-3.708-3.165-5.892-7.825-5.892Z"/><path class="c" d="M251.885,242.098c1.005,2.247,3.44,3.898,6.637,3.898,4.241,0,8.258-1.786,11.16-5.803l.089-3.283c-2.178-.428-4.17-.644-7.231-.644-5.682,0-9.378,2.545-10.655,5.833Z"/><path class="c" d="M615.685,50.993c-.492-2.236-1.995-3.708-5.631-4.012-4.068-.34-6.986.766-8.826,3.629,5.285.417,8.48.683,14.28,1.186.084-.279.136-.536.177-.803Z"/><path class="c" d="M174.212,70.732c-1.859.26-4.947.8-7.133,1.227.6,4.168,1.068,7.423,1.811,12.585,1.697.01,4.927-.196,7.739-.589,7.182-1.004,10.207-3.982,11.046-7.602-.947-4.591-4.662-6.85-13.462-5.62Z"/><path class="c" d="M485.626,52.032c-.441-7.17-3.048-10.938-9.969-11.042-4.313-.065-7.212,1.665-9.594,5.166-.078,7.549-.124,12.059-.19,18.428,2.666.648,4.34.916,7.92.968,7.941.114,11.33-4.351,11.833-13.52Z"/><path class="d" d="M48.655,272.333c-31.226,0-46.886-6.786-48.506-21.291-.09.794-.149,1.596-.149,2.41,0,16.293,15.623,23.881,48.655,23.881,41.736,0,61.154-21.203,61.154-46.424,0-.803-.027-1.603-.075-2.401-1.3,24.061-20.786,43.824-61.079,43.824Z"/><path class="d" d="M91.285,182.61c-3.348-3.571-15.847-8.258-26.113-8.258-13.615,0-19.641,2.009-19.641,5.803,0,1.3.375,2.069,1.059,2.598,2.255-2.232,8.211-3.401,18.581-3.401,10.267,0,22.765,4.687,26.113,8.258,10.713-2.455,17.186-8.927,17.186-20.756,0-.78-.049-1.547-.135-2.303-.931,10.119-7.186,15.798-17.051,18.059Z"/><path class="d" d="M62.27,233.944c0-2.232-2.009-3.125-4.687-3.794-6.696-1.786-14.73-4.241-26.56-8.035-16.87-5.552-27.603-17.034-28.5-33.849-.045.889-.068,1.786-.068,2.693,0,18.078,10.936,30.354,28.568,36.157,11.829,3.794,19.864,6.249,26.56,8.035,1.24.31,2.324.675,3.144,1.192,1.047-.674,1.543-1.479,1.543-2.397Z"/><path class="d" d="M161.188,271.886c-26.303,0-37.057-7.015-37.263-30.129-.006,1.525-.01,2.979-.01,4.329,0,23.658,10.713,30.8,37.272,30.8,29.685,0,45.308-7.142,45.308-22.542,0-.821-.053-1.645-.157-2.467-1.664,13.649-17.147,20.009-45.151,20.009Z"/><path class="d" d="M170.079,174.569l1.822-22.224c-.129-.058-.265-.111-.396-.168l-1.836,22.397.41-.006Z"/><path class="d" d="M114.987,204.259c-1.688-2.626-3.215-7.458-3.66-11.848-.08.823-.134,1.67-.134,2.564,0,4.91,1.786,11.16,3.794,14.284l9.134.223c.01-1.85.017-3.55.017-5l-9.151-.223Z"/><path class="d" d="M182.614,205.822c-3.348,0-13.614-.446-13.614-.446l-.223,21.426c0,.591.012,1.146.035,1.669l.188-18.095s10.267.446,13.614.446c16.516,0,22.766-6.25,22.766-18.302,0-.821-.043-1.606-.114-2.365-.896,10.324-7.387,15.667-22.652,15.667Z"/><path class="d" d="M314.181,233.194l.586-21.479c.043-1.268.021-2.483-.036-3.67l-.633,23.221c0,.723.03,1.357.084,1.928Z"/><path class="d" d="M241.56,271.216c-20.227,0-29.907-10.146-30.928-24.237-.057.805-.095,1.619-.095,2.454,0,15.4,9.597,26.783,31.023,26.783,17.891,0,28.248-6.519,33.038-18.945.018-1.988.116-4.618.664-6.811-4.464,13.614-14.954,20.756-33.702,20.756Z"/><path class="d" d="M258.746,209.482c6.787,0,9.763,2.215,10.577,6.361.043.007.095.015.137.021.669-7.365-1.562-11.383-10.713-11.383-12.499,0-20.533,4.241-24.997,9.597-10.172-1.795-15.341-7.87-16.328-14.716-.125.832-.188,1.676-.188,2.531,0,6.871,3.976,13.392,12.677,16.231,2.068-.746,4.303-1.38,6.708-1.899,4.74-3.934,11.955-6.744,22.128-6.744Z"/><path class="d" d="M297.135,271.216c-14.573,0-21.741-2.807-22.47-11.239-.07,1.328-.072,2.573-.072,3.518,0,9.597,7.142,12.722,22.542,12.722,23.211,0,36.38-7.812,36.38-20.087,0-.922-.056-1.827-.16-2.716-1.555,10.952-14.483,17.802-36.22,17.802Z"/><path class="d" d="M262.54,231.266c-7.142,0-11.16,4.017-11.16,8.481,0,.823.177,1.619.505,2.352,1.277-3.287,4.973-5.833,10.655-5.833,3.061,0,5.052.216,7.231.644l.134-4.975c-2.232-.446-4.241-.669-7.365-.669Z"/><path class="d" d="M434.958,271.216c-29.354,0-32.172-2.482-32.351-26.968-.005.617-.012,1.243-.012,1.838,0,27.452,1.786,30.13,32.363,30.13,18.748,0,27.899-4.463,27.899-17.409,0-1.059-.035-2.041-.093-2.988-.936,11.391-10.071,15.397-27.806,15.397Z"/><path class="d" d="M396.569,207.384c-3.125,0-6.919,1.339-9.151,4.464v5c2.232-3.125,6.026-4.464,9.151-4.464,4.541,0,6.216,1.918,6.442,7.678.018-1.214.03-2.403.03-3.527,0-6.919-1.562-9.151-6.473-9.151Z"/><path class="d" d="M448.222,241.521c1.017-16.729,1.02-26.495,1.02-33.823,0-.15-.007-.293-.008-.442-.034,7.615-.228,17.914-1.332,34.277l.32-.012Z"/><path class="d" d="M340.787,245.452c-.005.807-.015,1.625-.015,2.42,0,25.89,3.794,28.345,27.898,28.345,7.365,0,15.624-1.339,18.748-2.901v-5c-3.125,1.562-11.383,2.901-18.748,2.901-23.276,0-27.613-2.295-27.883-25.765Z"/><path class="d" d="M384.875,189.602l2.543-9.357c-.421-.136-.838-.264-1.253-.388l-4.326,15.922c.955-2.254,1.968-4.304,3.037-6.176Z"/><path class="d" d="M330.728,202.697c-1.611-3.401-2.494-6.524-2.784-10.157-.078.709-.117,1.446-.117,2.212,0,4.91.893,8.705,2.901,12.945l11.29-.434c.102-1.678.207-3.35.316-5.012l-11.606.446Z"/><path class="d" d="M553.786,230.373l-42.183-.223c.19,1.898.788,3.572,1.767,5.009l40.415.214c8.035.223,14.284-5.803,14.284-19.864,0-.896-.027-1.778-.067-2.653-.665,12.382-6.646,17.727-14.218,17.517Z"/><path class="d" d="M517.853,272.556c-35.252,0-51.643-15.927-52.625-42.908-.024.788-.047,1.576-.047,2.377,0,28.568,16.293,45.531,52.673,45.531,33.255,0,47.093-8.928,47.093-21.203,0-.957-.056-1.871-.162-2.75-1.635,11.101-15.744,18.953-46.93,18.953Z"/><path class="d" d="M524.548,202.474c-8.034,0-12.275,5.58-12.722,11.159h1.5c1.928-3.491,5.667-6.159,11.222-6.159,4.66,0,7.133,2.185,7.825,5.892.035-.843.21-1.826.21-2.634,0-5.133-2.455-8.258-8.035-8.258Z"/><path class="d" d="M661.521,215.642s.57.201,2.715,2.625l20.497-17.935c.446-2.009,1.116-6.25,1.116-8.258,0-.857-.078-1.66-.19-2.439-.231,2.008-.627,4.35-.926,5.697l-23.212,20.31Z"/><path class="d" d="M663.083,271.216c-14.954,0-19.641-2.678-25.667-13.837l-10.713-20.087c-2.455-4.464-2.901-9.151-2.901-9.151v5s.446,4.687,2.901,9.151l10.713,20.087c6.026,11.159,10.713,13.837,25.667,13.837,22.988,0,31.246-6.918,31.246-17.409,0-1.019-.045-2.002-.113-2.963-1.049,9.339-9.668,15.372-31.133,15.372Z"/><path class="d" d="M579.387,260.503c-1.259-7.131-1.335-25.301-1.34-45.988,0,.397-.62,39.557,1.34,50.988,1.339,7.812,7.588,10.713,24.551,10.713,6.695,0,14.954-1.116,19.864-2.901v-5c-4.91,1.786-13.169,2.901-19.864,2.901-16.963,0-23.212-2.901-24.551-10.713Z"/><path class="d" d="M748.923,272.556c-35.252,0-51.643-15.927-52.625-42.908-.024.788-.047,1.576-.047,2.377,0,28.568,16.293,45.531,52.673,45.531,33.255,0,47.093-8.928,47.093-21.203,0-.957-.056-1.871-.162-2.75-1.635,11.101-15.744,18.953-46.93,18.953Z"/><path class="d" d="M755.618,202.474c-8.034,0-12.275,5.58-12.722,11.159h1.5c1.928-3.491,5.667-6.159,11.222-6.159,4.66,0,7.133,2.185,7.825,5.892.035-.843.21-1.826.21-2.634,0-5.133-2.455-8.258-8.035-8.258Z"/><path class="d" d="M784.856,230.373l-42.183-.223c.19,1.898.788,3.572,1.767,5.009l40.415.214c8.035.223,14.284-5.803,14.284-19.864,0-.896-.027-1.778-.067-2.653-.665,12.382-6.646,17.727-14.218,17.517Z"/><path class="d" d="M853.298,189.616l2.51-10.041c-.332-.133-.727-.26-1.154-.383l-4.426,17.702c.981-2.691,2.005-5.104,3.07-7.278Z"/><path class="d" d="M805.145,203.144c-1.617-3.414-2.5-6.692-2.787-10.4-.076.716-.114,1.459-.114,2.231,0,4.91.893,8.928,2.901,13.168l11.288-.434c.102-1.67.208-3.341.318-5.012l-11.605.446Z"/><path class="d" d="M815.203,245.165c-.005.828-.016,1.663-.016,2.483,0,25.89,4.241,28.345,28.346,28.345,9.82,0,18.078-1.339,21.203-2.901v-5c-3.125,1.562-11.383,2.901-21.203,2.901-23.298,0-28.039-2.298-28.33-25.829Z"/><path class="d" d="M887.725,210.955c-10.044,0-18.078,1.562-22.988,4.464v5c4.91-2.901,12.944-4.464,22.988-4.464,4.687-5.803,7.143-11.606,7.143-21.203,0-.749-.032-1.474-.083-2.185-.448,7.958-2.851,13.177-7.059,18.388Z"/><path class="d" d="M174.005,95.767c-16.717,2.025-21.865,2.13-23.11-1.669-.849-2.59-2.314-11.618-4.483-25.678-1.459-9.456-3.863-25.901-3.863-25.901-2.732.319-4.099.482-6.831.811-.779-.914-1.255-1.878-1.575-2.983-.525.982-.564,2.078-.368,3.319.295,1.865.793,3.315,1.943,4.663,2.732-.329,4.098-.491,6.831-.811,0,0,2.404,16.445,3.863,25.901,2.169,14.06,3.634,23.088,4.483,25.678,1.246,3.799,6.393,3.695,23.11,1.669,13.913-1.685,34.536-9.282,32.335-26.974-1.859,14.147-19.812,20.457-32.335,21.974Z"/><path class="d" d="M182.793,49.689c.309-1.224.353-2.623.14-4.211-.685-5.116-4.609-8.549-14.292-7.188-1.832.258-4.169.717-6.244,1.142.262,1.819.488,3.394.699,4.859,1.89-.383,3.914-.772,5.545-1.001,9.174-1.29,13.173,1.727,14.151,6.399Z"/><path class="d" d="M193.495,55.39c1.427.284,2.714.684,3.884,1.176,2.149-3.131,3.064-7.029,2.616-10.581-.029-.232-.072-.452-.108-.677-.66,3.939-2.836,7.768-6.392,10.083Z"/><path class="d" d="M187.812,72.135c-.682-5.117-4.31-7.702-13.6-6.403-2.065.289-5.658.925-7.833,1.366.261,1.817.489,3.395.7,4.862,2.186-.427,5.275-.967,7.133-1.227,8.8-1.23,12.515,1.029,13.462,5.62.311-1.341.331-2.767.137-4.217Z"/><path class="d" d="M236.816,65.983c-5.799.624-8.051,2.657-7.575,6.911.067.598.221,1.107.412,1.574.92-1.983,3.22-3.061,7.163-3.485,3.48-.374,4.782-.384,7.799-.19.074.717.138,1.329.197,1.901.155-.171.314-.334.464-.514l-.661-6.387c-3.016-.194-4.319-.184-7.799.19Z"/><path class="d" d="M219.247,60.151c3.223-3.923,9.289-7.397,14.885-8,6.455-.697,8.95.429,9.342,5.107.173,0,.343-.008.517-.008-.202-1.954-.303-2.93-.505-4.884-.362-4.772-2.848-5.917-9.354-5.215-5.595.604-11.662,4.078-14.885,8-4.269.306-6.952-1.641-8.012-3.99-.315.795-.498,1.633-.519,2.517-.078,3.235,2.799,6.885,8.531,6.473Z"/><path class="d" d="M259.416,85.566c-7.142.692-11.222-.145-11.981-7.534-.082-.802-.124-1.202-.206-2.004-.894,7.686-7.194,11.49-16.875,12.577-11.427,1.282-17.409-3.558-18.688-11.637-.251,1.354-.3,2.812-.103,4.381,1.063,8.457,7.071,13.572,18.791,12.257,9.682-1.086,15.981-4.891,16.875-12.577.082.802.124,1.202.206,2.004.759,7.389,4.839,8.226,11.981,7.534,9.566-.927,13.692-3.679,13.231-8.821-.051-.574-.172-1.27-.382-1.961-1.244,3.216-5.382,5.058-12.849,5.782Z"/><path class="d" d="M267.182,43.935c.125,1.379.829,3.338,1.582,4.408,2.455-.17,3.682-.254,6.137-.417.448,6.659,1.523,20.132,1.751,24.617.541,10.606,9.764,15.919,19.549,14.812,8.244-.933,14.592-3.539,17.096-11.469.155-2.183.286-4.021.487-6.804-2.076,9.353-8.741,12.272-17.582,13.273-9.785,1.107-19.008-4.205-19.549-14.812-.229-4.485-1.304-17.958-1.751-24.617-2.455.163-3.682.246-6.137.417-.479-.68-.936-1.719-1.239-2.74-.355.962-.458,2.069-.343,3.332Z"/><path class="d" d="M325.961,80.149c-4.901.305-9.832.053-12.554-.809-.104,1.461-.209,2.94-.346,4.887,2.636.955,7.787,1.24,12.9.922,10.609-.659,13.042-3.036,12.785-7.687-.041-.745-.134-1.508-.297-2.243-.938,2.857-4.231,4.417-12.488,4.93Z"/><path class="d" d="M310.337,47.234c-.264-3.828-.45-6.986-.562-9.787-.078.381-.119.78-.112,1.204.062,3.72.284,7.931.675,13.583.341,4.945.556,8.047.832,12.054.103-.158.219-.315.313-.474-.458-6.632-.687-9.948-1.145-16.58Z"/><path class="d" d="M361.876,35.232c.095-.947.197-1.958.317-3.155-.153-.055-.317-.108-.486-.16-.159,1.593-.315,3.161-.526,5.284.203-.691.441-1.34.695-1.969Z"/><path class="d" d="M427.562,76.516c-11.263.106-12.825-1.473-12.963-10.033-.065-4.028-.05-19.264-.108-22.915-.08-5.035-1.168-7.672-7.441-7.548-4.313.085-7.013,2.164-8.758,5.481.039,1.601.077,3.203.116,4.804,1.748-3.197,4.419-5.202,8.642-5.285,6.273-.123,7.36,2.514,7.441,7.548.058,3.651.043,18.887.108,22.915.137,8.56,1.699,10.14,12.963,10.033,8.448-.08,12.794-2.345,12.78-7.381-.002-.82-.143-1.77-.39-2.645-1.226,3.391-5.399,4.959-12.39,5.025Z"/><path class="d" d="M335.441,38.557c.098,1.76.465,3.631,1.456,4.963,2.669-.047,4.003-.068,6.672-.105,0,0,.457,11.323.993,21.632.287,5.532.586,10.131.975,13.817.364,3.447,3.208,4.993,9.73,4.688,3.453-.162,7.023-.569,9.151-1.793l-.206-4.899c-2.147,1.141-5.595,1.535-8.945,1.693-6.523.306-9.366-1.241-9.73-4.688-.389-3.686-.688-8.285-.975-13.817-.536-10.31-.993-21.632-.993-21.632-2.669.038-4.003.059-6.672.105-.57-.766-.929-1.714-1.153-2.713-.271.813-.36,1.725-.302,2.75Z"/><path class="d" d="M380.293,72.376c-.323-3.693-.539-8.296-.727-13.832-.191-5.637-.287-8.456-.479-14.093-.171-5.033-.653-7.674-7.576-7.413-4.311.162-6.718,2.154-8.529,5.632.065,1.553.131,3.106.196,4.659,1.79-3.258,4.171-5.134,8.333-5.291,6.923-.261,7.405,2.38,7.576,7.413.191,5.637.287,8.456.479,14.093.188,5.536.404,10.14.727,13.832.302,3.453,3.117,5.05,9.643,4.862,3.455-.1,7.03-.443,9.18-1.629-.04-1.648-.08-3.296-.119-4.944-2.161,1.137-5.665,1.475-9.061,1.573-6.526.189-9.341-1.409-9.643-4.862Z"/><path class="d" d="M433.212,64.764c.078-7.057.025-16.389.134-19.932.021-.684.003-1.348-.05-1.993-.056,5.946,0,16.377-.179,21.923.034,0,.062,0,.095.001Z"/><path class="d" d="M474.141,76.889c-3.611-.148-6.648-.59-8.435-1.113-.1,9.719-.15,14.579-.25,24.298-1.779.863-5.574,1.332-9.112,1.313-6.191-.034-9.184-1.62-9.346-5.19-.205-4.528-.272-9.161-.285-13.825-.021,6.347.007,12.681.285,18.825.162,3.57,3.155,5.156,9.346,5.19,3.538.02,7.332-.45,9.112-1.313.1-9.719.15-14.579.25-24.298,1.788.522,4.825.965,8.435,1.113,16.224.664,29.156-12.177,30.156-27.915.097-1.532.078-3.038-.043-4.506-1.238,15.51-14.059,28.077-30.113,27.421Z"/><path class="d" d="M475.657,40.99c6.922.105,9.528,3.872,9.969,11.042.027-.493.051-.99.062-1.509.192-9.44-2.06-14.412-10.031-14.533-4.313-.065-7.212,1.665-9.594,5.166-.096,9.366-.145,14.05-.241,23.416.018.004.034.008.051.012.066-6.369.112-10.879.19-18.428,2.382-3.5,5.281-5.231,9.594-5.166Z"/><path class="d" d="M440.239,40.52c2.655.093,3.99.142,6.632.243.012-1.666.02-3.333.034-4.999-2.666-.102-3.999-.151-6.666-.244-.425-.64-.707-1.39-.892-2.184-.203.652-.304,1.365-.302,2.151.006,1.763.274,3.65,1.193,5.032Z"/><path class="d" d="M465.783,32.431c.096-.625.197-1.278.31-2.013-.223-.094-.47-.184-.727-.272-.247,1.61-.487,3.185-.814,5.329.327-1.097.743-2.107,1.231-3.044Z"/><path class="d" d="M569.146,68.645c1.252-19.744,2.504-39.488,3.756-59.232-.092-.043-.21-.082-.309-.124-1.254,19.777-2.508,39.553-3.763,59.33.112.009.209.017.315.026Z"/><path class="d" d="M540.803,12.592c-4.364-.208-5.86.612-6.582,1.966s-1.228,3.853-1.553,11.274c.107.005.198.009.303.013.311-3.687.722-5.298,1.25-6.287.722-1.354,2.217-2.174,6.582-1.966,1.588.076,5.417.391,6.595.703,1.115-1.078,2.151-3.701,2.276-5.556.072-1.07-.055-2.058-.413-2.947-.427,1.397-1.125,2.789-1.864,3.503-1.178-.312-5.006-.628-6.595-.703Z"/><path class="d" d="M536.443,38.225c-1.305-.06-2.872-.13-4.042-.308-.569,12.955-1.139,25.911-1.708,38.866-2.226,1.037-5.311,1.282-9.021,1.137-5.622-.221-8.836-1.641-8.899-5.608-.021,1.8-.023,3.46,0,4.988.057,3.977,3.272,5.399,8.9,5.62,3.71.146,6.795-.1,9.021-1.137.569-12.955,1.139-25.911,1.708-38.866,1.169.177,2.736.248,4.042.308,5.353.246,8.507-2.616,8.735-7.142.043-.852-.112-1.988-.34-2.962-.963,3.321-3.899,5.311-8.394,5.104Z"/><path class="d" d="M560.165,79.817c-6.945-.412-9.841-1.603-10.414-5.148-.035,1.041-.079,2.082-.109,3.123-.147,5.03,2.47,6.548,10.524,7.025,11.377.675,15.36-1.299,15.706-6.45.071-1.054,0-2.261-.289-3.296-1.115,3.876-5.396,5.34-15.417,4.746Z"/><path class="d" d="M508.373,41.883c2.113.164,3.217.251,5.256.415.131-3.029.222-4.982.222-4.982-2.191-.176-3.286-.263-5.478-.433-.364-.592-.65-1.339-.862-2.142-.234.471-.386.985-.403,1.559-.059,1.888.395,4.169,1.265,5.583Z"/><path class="d" d="M603.543,88.006c7.381.624,25.852,1.736,27.54-8.043.167-.966-.009-2.179-.498-3.313-3.427,7.957-20.116,6.943-27.042,6.357-13.708-1.159-23.472-9.159-24.582-22.226-.028.335-.06.668-.076,1.009-.697,15.425,9.604,24.944,24.658,26.217Z"/><path class="d" d="M628.083,61.399c-9.896-.934-19.805-1.786-29.716-2.553-.108,1.844-.075,3.524.218,5.018,9.838.763,19.674,1.608,29.498,2.536,2.97.278,5.634-1.748,6.534-11.014.141-1.45.096-2.823-.1-4.123-.982,8.5-3.562,10.406-6.434,10.137Z"/><path class="d" d="M610.054,46.981c3.636.304,5.139,1.776,5.631,4.012.049-.321.08-.656.116-1.068.381-4.39-.27-7.487-5.747-7.945-5.867-.49-9.349,2.02-10.64,8.486.637.05,1.234.097,1.814.143,1.839-2.862,4.758-3.968,8.826-3.629Z"/><path class="d" d="M638.394,90.083c1.365-.477,2.918-.75,4.648-.776-2.995-1.31-4.306-3.011-4.832-4.741-.109.377-.188.756-.225,1.13-.135,1.353-.191,2.894.41,4.386Z"/><path class="d" d="M666.673,100.558c3.157.584,5.076,1.09,6.239,1.61.995-.726,1.526-1.593,1.636-2.514.21-1.75-.336-2.701-7.875-4.096-5.278-.976-11.823-2.349-17.084-3.668-1.291,1.256-1.943,2.58-2.168,4.708-.106,1.004.051,1.933.497,2.777.36-.956.9-1.735,1.671-2.485,5.261,1.319,11.806,2.692,17.084,3.668Z"/><path class="d" d="M690.21,51.469c-.779-.097-1.818-.226-2.697-.589,2.507,1.24,4.32,3.313,5.225,5.698,3.68-.183,5.649-2.101,6.102-5.613.149-1.153.079-2.443-.255-3.733-.912,3.352-3.615,4.831-8.376,4.237Z"/><path class="d" d="M638.349,61.119c-.008.066-.02.128-.027.194-.599,5.614.865,10.215,4.212,13.523,1.589-.738,3.612-1.186,6.134-1.146-6.054-2.348-9.577-6.7-10.32-12.571Z"/><path class="d" d="M656.783,113.95c-7.775-.842-22.364-2.833-24.529-12.221-.099.435-.181.881-.224,1.346-1.178,12.563,16.057,14.933,24.754,15.875,11.592,1.256,31.979-.881,33.949-16.095.197-1.521.169-2.973-.114-4.335-2.478,14.602-22.417,16.667-33.835,15.43Z"/><path class="d" d="M668.444,52.1c4.765.541,6.908,2.746,7.531,5.966.021-.153.046-.298.065-.454.664-5.627-.828-9.743-7.596-10.512-7.419-.842-10.799,3.616-11.476,9.875-.191,1.765-.171,3.27.063,4.546.791-6.016,4.177-10.243,11.413-9.422Z"/><path class="d" d="M663.84,77.368c-1.919-.22-6.137-.811-7.905-1.256-1.249.751-1.687,1.21-1.795,2.212-.149,1.377,1.454,1.593,12.829,3.455,1.783.292,3.344.571,4.788.856,10.228-.525,19.998-4.728,21.549-16.259.168-1.245.082-2.492-.219-3.687-2.661,13.385-17.112,16.07-29.247,14.678Z"/><path class="d" d="M729.515,55.634c-5.837-.848-9.47,1.445-11.154,7.82.737.103,1.427.2,2.088.293,2.013-2.768,5.005-3.703,9.065-3.113,3.197.464,4.67,1.739,5.217,3.59.015-.101.031-.198.047-.309.648-4.358.184-7.49-5.264-8.281Z"/><path class="d" d="M746.363,76.119c-9.839-1.538-19.695-2.994-29.558-4.366-.237,1.974-.304,3.772-.038,5.368.014-.124.023-.243.038-.368,9.863,1.372,19.719,2.828,29.558,4.366,2.953.459,5.741-1.398,7.203-10.594.291-1.828.278-3.551.021-5.168-.008.056-.012.111-.021.168-1.462,9.196-4.25,11.053-7.203,10.594Z"/><path class="d" d="M720.512,96.185c-12.991-1.901-22.042-9.787-23.123-21.902-1.231,14.935,8.423,24.751,23.123,26.902,7.335,1.073,25.741,3.318,28.027-6.344.25-1.058.104-2.442-.442-3.713-3.575,8.156-20.598,6.079-27.586,5.057Z"/><path class="b" d="M79.009,191.091c-12.052-3.348-21.203-5.58-29.238-7.142-1.378-.344-2.454-.635-3.181-1.197-.685-.529-1.059-1.298-1.059-2.598,0-3.794,6.026-5.803,19.641-5.803,10.267,0,22.765,4.687,26.113,8.258,9.865-2.261,16.12-7.94,17.051-18.059.08-.87.135-1.761.135-2.697,0-13.838-13.392-24.105-45.754-24.105-38.389,0-60.261,19.864-60.261,48.209,0,.781.028,1.548.068,2.307.897,16.816,11.63,28.297,28.5,33.849,11.829,3.794,19.864,6.249,26.56,8.035,2.678.67,4.687,1.562,4.687,3.794,0,.918-.496,1.724-1.543,2.397-2.262,1.455-7.111,2.29-15.196,2.29-14.507,0-24.105-4.241-31.47-9.374-9.15,3.125-14.061,10.713-14.061,19.194,0,.891.055,1.751.149,2.59,1.62,14.505,17.28,21.291,48.506,21.291,40.293,0,59.78-19.764,61.079-43.824.047-.862.075-1.728.075-2.599,0-14.507-7.589-28.345-30.8-34.817Z"/><path class="b" d="M196.229,232.828c-6.473,2.455-13.615,3.794-19.864,3.794-4.391,0-7.215-.393-7.554-8.152-.023-.522-.035-1.077-.035-1.669l.223-21.426s10.267.446,13.614.446c15.265,0,21.755-5.343,22.652-15.667.073-.846.114-1.722.114-2.635,0-6.249-2.232-10.713-4.241-13.391l-31.059.44-.41.006,1.836-22.397.396-4.832c-6.473-2.901-15.4-4.24-25.667-4.24-13.838,0-22.096,5.58-22.096,20.756l-.223,10.713c-7.812,0-12.722,5.58-12.722,15.4,0,.783.05,1.603.134,2.436.445,4.391,1.972,9.222,3.66,11.848l9.151.223c0,1.449-.007,3.149-.017,5-.052,9.264-.206,22.674-.206,31.604,0,.229.008.446.01.671.206,23.114,10.96,30.129,37.263,30.129,28.004,0,43.486-6.36,45.151-20.009.1-.819.157-1.661.157-2.533,0-6.249-2.901-12.722-10.267-16.516Z"/><path class="b" d="M324.587,235.73c-2.455,1.116-4.91,1.562-6.919,1.562-2.076,0-3.192-.967-3.487-4.098-.054-.571-.084-1.205-.084-1.928l.633-23.221.036-1.33c.893-26.113-19.864-34.817-45.084-34.817-36.157,0-52.45,11.159-52.45,24.997,0,.831.071,1.654.188,2.469.987,6.847,6.156,12.922,16.328,14.716,4.464-5.356,12.499-9.597,24.997-9.597,9.151,0,11.383,4.018,10.713,11.383-.042-.006-.094-.015-.137-.021-2.917-.452-7.778-1.317-14.817-1.317-6.76,0-12.712.585-17.888,1.7-2.406.518-4.641,1.153-6.708,1.899-13.019,4.697-19.372,13.814-19.372,26.308,0,.862.035,1.71.095,2.546,1.021,14.091,10.702,24.237,30.928,24.237,18.748,0,29.238-7.142,33.702-20.756-.548,2.193-.646,4.823-.664,6.811-.004.44-.005.86-.005,1.224,0,.516.031,1.004.072,1.482.729,8.432,7.897,11.239,22.47,11.239,21.737,0,34.665-6.851,36.22-17.802.106-.743.16-1.505.16-2.284,0-6.25-2.232-11.829-8.928-15.4ZM269.771,236.91l-.089,3.283c-2.901,4.018-6.919,5.803-11.16,5.803-3.198,0-5.632-1.651-6.637-3.898-.328-.733-.505-1.528-.505-2.352,0-4.464,4.018-8.481,11.16-8.481,3.125,0,5.133.223,7.365.669l-.134,4.975Z"/><path class="b" d="M448.222,241.521l-.32.012c1.104-16.363,1.298-26.662,1.332-34.277.007-1.629.008-3.142.008-4.558,0-21.873-12.053-30.8-30.801-30.8-14.554,0-25.639,3.819-33.566,17.705-1.069,1.872-2.082,3.922-3.037,6.176l4.326-15.922,1.253-4.612c-7.588-2.455-14.061-2.901-26.336-2.901-22.989,0-33.255,4.91-33.255,17.409,0,.972.046,1.891.117,2.788.29,3.633,1.173,6.756,2.784,10.157l11.606-.446c-.109,1.662-.214,3.334-.316,5.012-.73,12.067-1.246,24.439-1.246,35.608,0,.889.006,1.745.015,2.58.271,23.47,4.607,25.765,27.883,25.765,7.365,0,15.624-1.339,18.748-2.901v-56.467c2.232-3.125,6.026-4.464,9.151-4.464,4.91,0,6.473,2.232,6.473,9.151,0,1.125-.013,2.314-.03,3.527-.098,6.734-.416,14.594-.416,21.023,0,1.098.005,2.142.012,3.162.179,24.486,2.997,26.968,32.351,26.968,17.735,0,26.87-4.006,27.806-15.397.053-.65.093-1.313.093-2.012,0-5.356-.67-9.151-2.679-12.722l-11.956.435Z"/><path class="b" d="M526.11,171.451c-39.728,0-60.931,22.096-60.931,55.574,0,.886.016,1.76.047,2.623.982,26.98,17.373,42.908,52.625,42.908,31.187,0,45.296-7.852,46.93-18.953.108-.736.162-1.487.162-2.25,0-7.142-2.901-12.052-9.374-15.4-8.034,2.678-17.408,4.91-27.229,4.91-7.516,0-12.498-2.072-14.972-5.704-.979-1.437-1.578-3.111-1.767-5.009l42.183.223c7.572.21,13.552-5.135,14.218-17.517.041-.758.067-1.536.067-2.347,0-22.766-12.722-39.058-41.96-39.058ZM532.373,213.366c-.004.088-.013.182-.013.267h-20.533c.446-5.58,4.688-11.159,12.722-11.159,5.58,0,8.035,3.125,8.035,8.258,0,.808-.176,1.792-.21,2.634Z"/><path class="b" d="M682.277,241.532l-12.945-16.962c-2.288-2.998-3.924-4.978-5.097-6.303-2.145-2.424-2.715-2.625-2.715-2.625l23.212-20.31c.308-1.388,1.116-7.577,1.116-8.258,0-10.043-7.812-14.73-21.873-14.73-10.937,0-18.078,7.142-25.667,16.739l-14.507,18.525v-78.34c-6.25-2.232-12.723-3.348-22.097-3.348-16.739,0-22.096,4.911-23.211,27.006-.465,9.204-.864,97.33.893,107.578,1.339,7.812,7.588,10.713,24.551,10.713,6.695,0,14.954-1.116,19.864-2.901v-40.174s.446,4.687,2.901,9.151l10.713,20.087c6.026,11.159,10.713,13.837,25.667,13.837,21.465,0,30.084-6.033,31.133-15.372.074-.663.113-1.341.113-2.037,0-5.133-.893-9.597-2.455-12.722l-9.597.446Z"/><path class="b" d="M757.181,171.451c-39.728,0-60.931,22.096-60.931,55.574,0,.886.016,1.76.047,2.623.982,26.98,17.373,42.908,52.625,42.908,31.187,0,45.296-7.852,46.93-18.953.108-.736.162-1.487.162-2.25,0-7.142-2.901-12.052-9.374-15.4-8.034,2.678-17.408,4.91-27.229,4.91-7.516,0-12.498-2.072-14.972-5.704-.979-1.437-1.578-3.111-1.767-5.009l42.183.223c7.572.21,13.552-5.135,14.218-17.517.041-.758.067-1.536.067-2.347,0-22.766-12.722-39.058-41.96-39.058ZM763.443,213.366c-.004.088-.013.182-.013.267h-20.533c.446-5.58,4.688-11.159,12.722-11.159,5.58,0,8.035,3.125,8.035,8.258,0,.808-.176,1.792-.21,2.634Z"/><path class="b" d="M877.904,172.343c-10.151,0-18.164,4.118-24.606,17.272-1.065,2.175-2.088,4.587-3.07,7.278l4.426-17.702,1.154-4.617c-3.348-1.339-11.829-2.232-19.418-2.232-24.327,0-34.147,5.133-34.147,17.632,0,.957.045,1.872.114,2.769.287,3.708,1.17,6.985,2.787,10.4l11.605-.446c-.11,1.671-.216,3.343-.318,5.012-.729,11.931-1.245,23.779-1.245,34.938,0,.866.006,1.702.016,2.517.291,23.531,5.032,25.829,28.33,25.829,9.82,0,18.078-1.339,21.203-2.901v-52.673c4.91-2.901,12.944-4.464,22.988-4.464,4.208-5.21,6.611-10.43,7.059-18.388.051-.905.083-1.835.083-2.815,0-10.49-4.911-17.409-16.963-17.409Z"/><path class="b" d="M197.379,56.566c-1.17-.492-2.458-.891-3.884-1.176,3.556-2.315,5.733-6.144,6.392-10.083.243-1.449.286-2.913.108-4.323-1.853-14.693-17.651-15.893-29.607-14.126-8.685,1.207-13.026,1.834-21.701,3.137-13.67,2.053-15.562,4.567-14.912,8.67.095.601.215,1.155.368,1.681.32,1.105.796,2.069,1.575,2.983,2.732-.329,4.098-.491,6.831-.811,0,0,2.404,16.445,3.863,25.901,2.169,14.06,3.634,23.088,4.483,25.678,1.246,3.799,6.393,3.695,23.11,1.669,12.523-1.517,30.476-7.827,32.335-21.974.213-1.623.227-3.343-.017-5.177-.703-5.301-3.455-9.746-8.944-12.052ZM187.674,76.352c-.839,3.62-3.864,6.598-11.046,7.602-2.812.393-6.042.599-7.739.589-.743-5.162-1.211-8.417-1.811-12.585-.211-1.467-.438-3.045-.7-4.862,2.174-.44,5.768-1.077,7.833-1.366,9.289-1.298,12.918,1.286,13.6,6.403.193,1.45.173,2.876-.137,4.217ZM162.398,39.433c2.075-.426,4.412-.885,6.244-1.142,9.682-1.362,13.607,2.072,14.292,7.188.213,1.588.168,2.987-.14,4.211-.807,3.202-3.483,5.165-8.549,5.869-2.075.289-6.76.823-9.371,1.072-.728-5.06-1.189-8.263-1.776-12.339-.211-1.465-.438-3.04-.699-4.859Z"/><path class="b" d="M219.247,55.151c3.223-3.923,9.289-7.397,14.885-8,6.506-.702,8.992.443,9.354,5.215.202,1.954.303,2.93.505,4.884-.174,0-.344.007-.517.008-3.475.021-6.821.246-10.163.493-9.998.738-23.288,6.35-21.749,18.597.027.212.07.412.103.619,1.279,8.08,7.261,12.92,18.688,11.637,9.682-1.086,15.981-4.891,16.875-12.577.082.802.124,1.202.206,2.004.759,7.389,4.839,8.226,11.981,7.534,7.467-.724,11.605-2.566,12.849-5.782.35-.904.483-1.911.382-3.039-.135-1.505-.732-3.853-2.236-4.728-1.273.241-2.3.335-3.199.418-2.824.261-3.549-.555-3.821-4.828-.594-7.43-.891-11.146-1.483-18.576-.86-12.791-15.319-15.717-25.447-14.665-8.441.877-25.526,5.184-25.746,14.312-.02.826.156,1.678.519,2.483,1.061,2.35,3.743,4.296,8.012,3.99ZM244.811,72.693c-2.225,2.458-4.963,3.975-9.515,4.471-2.636.287-4.757-.526-5.643-2.697-.191-.467-.345-.976-.412-1.574-.476-4.254,1.775-6.287,7.575-6.911,3.48-.374,4.782-.384,7.799-.19l.661,6.387c-.15.18-.31.343-.464.514Z"/><path class="b" d="M267.525,40.604c.303,1.021.76,2.06,1.239,2.74,2.455-.17,3.682-.254,6.137-.417.448,6.659,1.523,20.132,1.751,24.617.541,10.606,9.764,15.919,19.549,14.812,8.842-1,15.506-3.92,17.582-13.273-.2,2.783-.332,4.62-.487,6.804-.071,1-.146,2.066-.236,3.341.109.04.229.076.346.113,2.722.862,7.653,1.113,12.554.809,8.257-.513,11.55-2.073,12.488-4.93.267-.813.354-1.726.297-2.757-.097-1.76-.458-3.632-1.436-4.964-2.63.046-3.945.071-6.575.126-.732-13.073-1.463-26.146-2.193-39.22-2.29-.874-6.787-1.102-9.413-.934-6.303.403-9.528,2.467-9.466,6.181.02,1.2.059,2.461.112,3.796.113,2.801.298,5.959.562,9.787.458,6.632.687,9.948,1.145,16.58-.094.16-.209.316-.313.474-1.684,2.579-4.608,4.916-8.725,5.22-5.785.428-7.007-1.994-7.396-7.016-.282-3.641-1.068-18.859-1.378-22.876-.659-8.536-3.805-9.965-15.215-9-8.787.743-11.728,3.303-11.273,8.318.046.503.169,1.083.343,1.668Z"/><path class="b" d="M335.743,35.807c.225,1,.583,1.947,1.153,2.713,2.669-.047,4.003-.068,6.672-.105,0,0,.457,11.323.993,21.632.287,5.532.586,10.131.975,13.817.364,3.447,3.208,4.993,9.73,4.688,3.35-.157,6.798-.552,8.945-1.693.066-.035.143-.064.206-.101-.413-9.81-.826-19.62-1.24-29.43-.065-1.553-.131-3.106-.196-4.659,1.811-3.478,4.219-5.47,8.529-5.632,6.923-.261,7.405,2.38,7.576,7.413.191,5.637.287,8.456.479,14.093.188,5.536.404,10.14.727,13.832.302,3.453,3.117,5.05,9.643,4.862,3.396-.098,6.9-.436,9.061-1.573.038-.02.083-.035.119-.056-.236-9.768-.472-19.537-.708-29.305-.039-1.601-.077-3.203-.116-4.804,1.746-3.317,4.446-5.396,8.758-5.481,6.273-.123,7.36,2.514,7.441,7.548.058,3.651.043,18.887.108,22.915.137,8.56,1.699,10.14,12.963,10.033,6.991-.066,11.164-1.634,12.39-5.025.256-.707.392-1.487.39-2.355-.004-1.385-.395-3.146-1.042-4.277-2.439-.042-3.68-.061-6.087-.094-.033,0-.062,0-.095-.001.178-5.546.123-15.977.179-21.923.011-1.21.027-2.25.05-3.007.331-10.771-8.735-16.67-18.646-16.163-7.854.402-14.544,2.923-17.678,8.668-2.762-5.725-8.225-8.113-17.033-7.82-9.062.3-15.224,3.552-18.114,10.715-.254.63-.492,1.278-.695,1.969.211-2.123.367-3.69.526-5.284.145-1.446.292-2.913.486-4.84-2.805-1.016-8.353-1.401-13.609-1.144-10.905.535-13.404,2.972-13.144,7.623.042.747.137,1.512.302,2.25Z"/><path class="b" d="M440.239,35.52c2.667.093,4,.142,6.666.244-.014,1.666-.021,3.333-.034,4.999-.036,4.898-.046,9.797-.066,14.695-.001.292-.003.584-.004.877-.012,3.173-.04,6.346-.042,9.519-.005,5.474-.063,11.017-.047,16.518.014,4.664.08,9.297.285,13.825.162,3.57,3.155,5.156,9.346,5.19,3.538.02,7.332-.45,9.112-1.313.1-9.719.15-14.579.25-24.298,1.788.522,4.825.965,8.435,1.113,16.054.657,28.875-11.91,30.113-27.421.013-.165.033-.328.043-.494.855-13.455-6.846-24.975-21.09-25.197-7.942-.124-14.285,2.623-17.424,8.653-.488.937-.904,1.947-1.231,3.044.327-2.144.567-3.719.814-5.329.216-1.411.437-2.849.727-4.728-2.748-1.161-8.135-1.836-13.395-1.854-10.389-.036-13.669,2.266-13.653,6.924.003.947.087,1.927.302,2.849.185.794.466,1.544.892,2.184ZM485.688,50.523c-.011.52-.035,1.017-.062,1.509-.503,9.169-3.893,13.634-11.833,13.52-3.581-.052-5.254-.32-7.92-.968-.018-.004-.034-.008-.051-.012.096-9.366.145-14.05.241-23.416,2.382-3.5,5.281-5.231,9.594-5.166,7.971.121,10.224,5.092,10.031,14.533Z"/><path class="b" d="M569.146,68.645c-.107-.009-.204-.017-.315-.026,1.254-19.777,2.508-39.553,3.763-59.33.103-1.625.206-3.251.309-4.876-2.203-1.023-6.692-1.803-9.485-1.967-6.515-.382-9.764,1.659-10.171,5.608-1.07,10.386-1.536,21.188-2.1,31.786-.584,10.974-1.185,21.973-1.506,32.952-.02.692.018,1.312.109,1.877.573,3.545,3.469,4.736,10.414,5.148,10.021.594,14.302-.869,15.417-4.746.151-.524.248-1.09.289-1.704.093-1.382-.053-3.032-.621-4.205-2.456-.212-3.75-.322-6.105-.518Z"/><path class="b" d="M508.373,36.883c2.192.17,3.287.257,5.478.433,0,0-.091,1.953-.222,4.982-.18,4.147-.436,10.315-.641,16.278-.191,5.536-.269,10.001-.216,13.724,0,.004,0,.008,0,.012.064,3.967,3.277,5.387,8.899,5.608,3.71.146,6.795-.1,9.021-1.137.569-12.955,1.139-25.911,1.708-38.866,1.169.177,2.736.248,4.042.308,4.495.207,7.431-1.783,8.394-5.104.184-.634.304-1.312.34-2.038.076-1.509-.46-3.931-.948-4.712-4.517-.224-6.842-.333-11.257-.527-.105-.005-.196-.009-.303-.013.325-7.421.831-9.92,1.553-11.274s2.217-2.174,6.582-1.966c1.588.076,5.417.391,6.595.703.738-.714,1.436-2.105,1.864-3.503.218-.713.37-1.427.413-2.053.284-4.207-2.467-7.163-10.54-7.703-15.677-1.05-21.252,21.557-24.326,24.842-.935.999-7.571,2.27-7.699,6.423-.034,1.098.11,2.325.403,3.441.211.803.498,1.55.862,2.142Z"/><path class="b" d="M603.543,83.006c6.926.586,23.615,1.6,27.042-6.357.225-.523.394-1.084.498-1.687.356-2.065-.792-5.263-3.411-6.393-5.779,2.113-13.476,2.821-18.742,2.377-6.969-.587-9.577-3.177-10.344-7.082-.293-1.494-.326-3.174-.218-5.018,9.911.767,19.82,1.619,29.716,2.553,2.871.269,5.452-1.637,6.434-10.137.034-.291.07-.57.1-.877,1.204-12.398-10.731-19.339-21.469-20.146-16.185-1.217-33.469,8.979-34.263,26.55-.062,1.379-.033,2.708.076,3.991,1.11,13.068,10.873,21.067,24.582,22.226ZM615.801,49.926c-.036.411-.067.746-.116,1.068-.041.266-.093.523-.177.803-5.8-.503-8.994-.769-14.28-1.186-.58-.046-1.178-.093-1.814-.143,1.291-6.466,4.773-8.976,10.64-8.486,5.477.457,6.128,3.555,5.747,7.945Z"/><path class="b" d="M632.029,98.075c-.125,1.331-.032,2.542.224,3.654,2.165,9.388,16.754,11.379,24.529,12.221,11.418,1.237,31.357-.827,33.835-15.43.038-.222.084-.437.114-.665.743-5.736-1.6-10.552-9.505-12.864-3.382-.989-6.108-1.691-9.471-2.356-1.444-.286-3.005-.564-4.788-.856-11.375-1.862-12.977-2.078-12.829-3.455.108-1.001.546-1.461,1.795-2.212,1.768.445,5.987,1.036,7.905,1.256,12.136,1.392,26.587-1.294,29.247-14.678.085-.427.158-.865.219-1.313.22-1.638.009-3.281-.568-4.798-.906-2.385-2.719-4.458-5.225-5.698.879.362,1.918.491,2.697.589,4.761.595,7.463-.885,8.376-4.237.108-.398.197-.817.255-1.267.225-1.748-.038-3.813-.99-5.712-5.547-.659-8.321-.979-13.87-1.599-3.439-1.177-8.925-2.288-12.935-2.788-14.761-1.843-30.983,4.13-32.723,20.448-.181,1.699-.164,3.3.027,4.806.743,5.871,4.266,10.224,10.32,12.571-2.522-.04-4.545.408-6.134,1.146-2.901,1.347-4.333,3.675-4.551,5.861-.119,1.197-.178,2.542.225,3.87.526,1.729,1.837,3.431,4.832,4.741-1.73.026-3.283.299-4.648.776-3.72,1.299-6.005,4.154-6.365,7.991ZM676.041,57.611c-.018.156-.044.301-.065.454-.935,6.939-4.103,10.327-11.034,9.544-4.625-.522-7.216-2.293-7.911-6.088-.234-1.277-.254-2.782-.063-4.546.677-6.259,4.057-10.717,11.476-9.875,6.768.768,8.26,4.885,7.596,10.512ZM649.589,91.891c5.261,1.319,11.806,2.692,17.084,3.668,7.539,1.394,8.085,2.346,7.875,4.096-.11.921-.642,1.788-1.636,2.514-2.246,1.639-6.875,2.553-14.495,1.703-6.126-.684-9.333-2.287-10.499-4.495-.446-.844-.603-1.773-.497-2.777.224-2.128.877-3.452,2.168-4.708Z"/><path class="b" d="M697.389,74.283c1.081,12.115,10.132,20.001,23.123,21.902,6.988,1.022,24.01,3.1,27.586-5.057.178-.406.333-.829.442-1.287.482-2.038-.472-5.302-3.023-6.59-5.908,1.756-13.647,1.991-18.886,1.226-6.729-.982-9.237-3.595-9.863-7.356-.266-1.596-.199-3.394.038-5.368,9.863,1.372,19.719,2.828,29.558,4.366,2.953.459,5.741-1.398,7.203-10.594.009-.057.013-.112.021-.168,1.826-12.219-9.642-19.802-20.265-21.255-16.084-2.201-34.004,6.896-35.868,24.407-.215,2.018-.229,3.943-.065,5.774ZM734.779,63.915c-.016.111-.032.207-.047.309-.089.58-.171,1.027-.36,1.54-5.666-.841-8.829-1.301-13.922-2.017-.662-.093-1.352-.19-2.088-.293,1.684-6.375,5.317-8.668,11.154-7.82,5.448.791,5.911,3.923,5.264,8.281Z"/></svg>